{"title":"Inside.Out.2015.HD-TS.XVID.AC3.HQ.Hive-CM8","uid":12156330,"size":1352670646,"categoryP":"video","categoryS":"movies","magnet":"?xt=urn:btih:5ed029ff8694f6cfa9dc870269a0fb0137339e5a&amp;dn=Inside.Out.2015.HD-TS.XVID.AC3.HQ.Hive-CM8&amp;tr=udp%3A%2F%2Ftracker.openbittorrent.com%3A80&amp;tr=udp%3A%2F%2Fopen.demonii.com%3A1337&amp;tr=udp%3A%2F%2Ftracker.coppersurfer.tk%3A6969&amp;tr=udp%3A%2F%2Fexodus.desync.com%3A6969","seeders":2,"leechers":0,"uploader":"TvTeam","files":4,"time":1437791720,"description":"------------------------------------------------------------------------\n\n &lt;a href=&quot; https://www.torrenting.com&quot; rel=&quot;nofollow&quot; target=&quot;_NEW&quot;&gt; https://www.torrenting.com&lt;/a&gt;\n\nSign up is OPEN - for time being. Come and have fun\n\n.......................................................................................................................[center][img]http://img540.imageshack.us/img540/7163/yXiUUf.jpg[/img]\n\n\n[color=blue][size=4][b]Inside.Out.2015.HD-TS.XVID.AC3.HQ.Hive-CM8[/b][/size][/color]\n\nThx Hive\n\nCM8 Doing It Right The First Time\n\nSources:\n\nVideo: Spanish HDCAM + French Afterendcredit-scene\nAudio: Sweet Line Big Thx to S4NDM4N  (audio is marked)\nthx\n\nNotes:\n\nhere is another Day 1 Release in amazing quality, have fun guys/kids!!\nGot that nice Spanish HDCAM, quality was already very nice, not much to do on that one\nAudio is another nice Line from S4NDM4N.\n\nEncode:\n\nfixed slightly the perspective, and removed some flicker, slightly added sharpness, the rest is untouched, colours and brightness were already perfect\nVideo was missing the funny after credits scene so i appended it from the french cam to get it complete\nAudio needed the usual cleaning, and afterwards i lipsynced the audio as usual.\nappending and syncing audio to the after credits was a pita cause it had different resolution and framerate, but got there in the end.\n\ngot very nice\nthis will do me till retail\nenjoy\n\nPS: \n\nVideo/Audio i would rate 7/10\nHave audio lined up, i need 0 day hdcams, if you have access to cams pls msg me\nthx\n\nPS:2\n\nbefore i read a comment about the russian video, its same as the spanish only upscaled and converted to 25 frames.\nit looks worse than the source and is jerky cause of the framerate conversion but i am sure someone will try and convince you otherwise\nwith jibber jabber on all sites they are not banned on or can make a comment\ngo back to uploading porn on public sites\n\n\nVideo: 632x336 @bitrate 1800 2pass\nAudio: Line 2.0 Stereo\nSample: yes included\n\n\n &lt;a href=&quot;\nhttp://www.imdb.com/title/tt2096673/&quot; rel=&quot;nofollow&quot; target=&quot;_NEW&quot;&gt;\nhttp://www.imdb.com/title/tt2096673/&lt;/a&gt;\n\n\nGeneral\nComplete name                  : Inside.Out.2015.HD-TS.XVID.AC3.HQ.Hive-CM8.avi\nFormat                         : AVI\nFormat/Info                    : Audio Video Interleave\nFile size                      : 1.24 GiB\nDuration                       : 1h 26mn\nOverall bit rate               : 2 070 Kbps\nWriting application            : Nandub v1.0rc2\nWriting library                : Nandub build 1853/release\n\nVideo\nID                             : 0\nFormat                         : MPEG-4 Visual\nFormat profile                 : Advanced Simple@L5\nFormat settings, BVOP          : 2\nFormat settings, QPel          : Yes\nFormat settings, GMC           : No warppoints\nFormat settings, Matrix        : Default (H.263)\nMuxing mode                    : Packed bitstream\nCodec ID                       : XVID\nCodec ID/Hint                  : XviD\nDuration                       : 1h 26mn\nBit rate                       : 1 804 Kbps\nWidth                          : 632 pixels\nHeight                         : 336 pixels\nDisplay aspect ratio           : 1.881\nFrame rate                     : 23.976 fps\nColor space                    : YUV\nChroma subsampling             : 4:2:0\nBit depth                      : 8 bits\nScan type                      : Progressive\nCompression mode               : Lossy\nBits/(Pixel*Frame)             : 0.354\nStream size                    : 1.08 GiB (87%)\nWriting library                : XviD 1.2.1 (UTC 2008-12-04)\n\nAudio\nID                             : 1\nFormat                         : AC-3\nFormat/Info                    : Audio Coding 3\nMode extension                 : CM (complete main)\nFormat settings, Endianness    : Big\nCodec ID                       : 2000\nDuration                       : 1h 26mn\nBit rate mode                  : Constant\nBit rate                       : 256 Kbps\nChannel(s)                     : 2 channels\nChannel positions              : Front: L R\nSampling rate                  : 48.0 KHz\nBit depth                      : 16 bits\nCompression mode               : Lossy\nStream size                    : 158 MiB (12%)\nAlignment                      : Split accross interleaves\nInterleave, duration           : 42 ms (1.00 video frame)\nInterleave, preload duration   : 500 ms\n\n\nScreens \n\n[img]http://img661.imageshack.us/img661/141/faWGzv.png[/img]\n[img]http://img538.imageshack.us/img538/4297/expkPH.png[/img]\n[img]http://img538.imageshack.us/img538/5750/wwd8Kl.png[/img]\n[img]http://img901.imageshack.us/img901/9889/zG0EiX.png[/img]\n[img]http://img661.imageshack.us/img661/2731/iuPbP2.png[/img]\n[img]http://img910.imageshack.us/img910/5343/F29fY3.png[/img]\n[img]http://img910.imageshack.us/img910/8091/YFZAEM.png[/img]\n\n\nPlot\n\nAfter young Riley is uprooted from her Midwest life and moved to San Francisco, \nher emotions - Joy, Fear, Anger, Disgust and Sadness - conflict on how best to navigate a new city, house and school.\n\nCast\n\nAmy Poehler     ... Joy (voice)\nPhyllis Smith   ... Sadness (voice)\nLewis Black     ... Anger (voice)\nBill Hader \t... Fear (voice)\t\nMindy Kaling \t... Disgust (voice) \nKaitlyn Dias    ... Riley (voice)\nDiane Lane      ... Mom (voice)\nKyle MacLachlan ... Dad (voice) \n\n\n\n\nGreetz\n\nSugarB,iNCOMiNG,jiinx,SiMPLE,CherryBomb\nViSiON,YanKeeS,COPYxRIGHT,THC,\nLKRG,Kingstoner,ACAB,SiMPLE,TiTAN\nUnevano,BigVik,Rapeseed,SAFC,goldadvance,KaN1vE,Pinnz,Wayne,HiGH\nSeeN,jtr,Limey,ICONiK,TED,rkofan\nMr Hive\n\nLOOKING FOR ANYTHING YOU WANT TO LOOK AND SOUND BETTER\n\n\nCOME FIND US WE DONT BITE \n&lt;a class=&quot;__cf_email__&quot; href=&quot;/cdn-cgi/l/email-protection&quot; data-cfemail=&quot;4506087d052d30362d28242c296b2820&quot;&gt;[email&amp;#160;protected]&lt;/a&gt;&lt;script data-cfhash='f9e31' type=&quot;text/javascript&quot;&gt;\n/* &lt;![CDATA[ */!function(){try{var t=&quot;currentScript&quot;in document?document.currentScript:function(){for(var t=document.getElementsByTagName(&quot;script&quot;),e=t.length;e--;)if(t[e].getAttribute(&quot;data-cfhash&quot;))return t[e]}();if(t&amp;&amp;t.previousSibling){var e,r,n,i,c=t.previousSibling,a=c.getAttribute(&quot;data-cfemail&quot;);if(a){for(e=&quot;&quot;,r=parseInt(a.substr(0,2),16),n=2;a.length-n;n+=2)i=parseInt(a.substr(n,2),16)^r,e+=String.fromCharCode(i);e=document.createTextNode(e),c.parentNode.replaceChild(e,c)}t.parentNode.removeChild(t);}}catch(u){}}()/* ]]&gt; */&lt;/script&gt;[/center]","torrent":{"xt":"urn:btih:5ed029ff8694f6cfa9dc870269a0fb0137339e5a","amp;dn":"Inside.Out.2015.HD-TS.XVID.AC3.HQ.Hive-CM8","amp;tr":["udp%3A%2F%2Ftracker.openbittorrent.com%3A80","udp%3A%2F%2Fopen.demonii.com%3A1337","udp%3A%2F%2Ftracker.coppersurfer.tk%3A6969","udp%3A%2F%2Fexodus.desync.com%3A6969"],"infoHash":"5ed029ff8694f6cfa9dc870269a0fb0137339e5a","infoHashBuffer":{"type":"Buffer","data":[94,208,41,255,134,148,246,207,169,220,135,2,105,160,251,1,55,51,158,90]},"announce":[],"urlList":[]}}